<svg width="279" height="100" viewBox="0 0 279 100" fill="none" xmlns="http://www.w3.org/2000/svg">
<path d="M74.09 67.6915C64.2905 67.6915 56.3206 59.7535 56.3206 50C56.3206 40.2465 64.2905 32.3085 74.09 32.3085C77.6561 32.3085 80.5487 29.4286 80.5487 25.8781C80.5487 22.3243 77.6561 19.4445 74.09 19.4445C60.0815 19.4445 48.2363 28.8349 44.5712 41.625H41.8918C37.247 41.625 33.48 45.3725 33.48 50C33.48 54.6275 37.247 58.375 41.8918 58.375H44.5712C48.2363 71.1652 60.0815 80.5556 74.09 80.5556C77.6561 80.5556 80.5487 77.6757 80.5487 74.122C80.5487 70.5714 77.6561 67.6915 74.09 67.6915Z" fill="#53BCEB"/>
<path d="M125.504 41.625H122.701C119.036 28.8349 107.19 19.4445 93.182 19.4445C89.6157 19.4445 86.7231 22.3243 86.7231 25.8781C86.7231 29.4286 89.6157 32.3085 93.182 32.3085C102.981 32.3085 110.951 40.2465 110.951 50C110.951 59.7535 102.981 67.6915 93.182 67.6915C89.6157 67.6915 86.7231 70.5714 86.7231 74.122C86.7231 77.6757 89.6157 80.5556 93.182 80.5556C107.19 80.5556 119.036 71.1652 122.701 58.375H125.504C130.148 58.375 133.915 54.6275 133.915 50C133.915 45.3725 130.148 41.625 125.504 41.625Z" fill="#53BCEB"/>
<path fill-rule="evenodd" clip-rule="evenodd" d="M92.0478 58.375C96.6957 58.375 100.463 54.6275 100.463 50C100.463 45.3725 96.6957 41.625 92.0478 41.625H75.2241C70.5763 41.625 66.8092 45.3725 66.8092 50C66.8092 54.6275 70.5763 58.375 75.2241 58.375H92.0478Z" fill="#C0EAA2"/>
<path d="M160.655 52.7778L154.429 51.7532V34.6811H149.265V29.1667H165.821V34.6811H160.655V52.7778Z" fill="#C0EAA2"/>
<path d="M174.522 34.3992C177.233 34.3992 179.202 34.8561 180.428 35.7701C181.654 36.6613 182.268 38.1122 182.268 40.1229V52.016H179.191L177.634 50.3022C175.841 51.7646 173.813 52.4957 171.549 52.4957C169.451 52.4957 167.918 52.0501 166.951 51.159C166.008 50.2451 165.536 48.8056 165.536 46.8406C165.536 45.3782 165.818 44.2472 166.385 43.4475C166.975 42.6478 167.953 42.0765 169.321 41.7338C170.688 41.391 172.623 41.2197 175.123 41.2197H176.042V39.0604C175.547 38.9233 174.816 38.8547 173.849 38.8547C171.726 38.8547 169.474 39.1518 167.092 39.7458L166.35 35.5301C168.802 34.7761 171.527 34.3992 174.522 34.3992ZM173.531 48.3486C174.498 48.3486 175.158 48.2458 175.512 48.0401C175.865 47.8346 176.042 47.4461 176.042 46.8749V44.3729H173.813C172.846 44.3729 172.174 44.4871 171.797 44.7156C171.443 44.9213 171.267 45.3211 171.267 45.9151V48.3486H173.531Z" fill="#C0EAA2"/>
<path d="M194.457 52.4957C192.31 52.4957 190.589 52.1874 189.292 51.5704C187.996 50.9535 187.04 49.9938 186.426 48.6914C185.814 47.3661 185.507 45.6182 185.507 43.4475C185.507 41.2768 185.814 39.5288 186.426 38.2036C187.04 36.8783 187.996 35.9186 189.292 35.3246C190.589 34.7076 192.31 34.3992 194.457 34.3992C196.627 34.3992 198.361 34.7076 199.657 35.3246C200.978 35.9186 201.933 36.8783 202.522 38.2036C203.136 39.5288 203.443 41.2768 203.443 43.4475C203.443 45.6182 203.136 47.3661 202.522 48.6914C201.909 49.9938 200.943 50.9535 199.622 51.5704C198.324 52.1874 196.603 52.4957 194.457 52.4957ZM195.342 47.9031C195.907 47.9031 196.285 47.846 196.473 47.7317C196.685 47.5946 196.791 47.3432 196.791 46.9776V38.9918H193.643C193.078 38.9918 192.689 39.0604 192.476 39.1975C192.287 39.3118 192.193 39.5517 192.193 39.9172V47.9031H195.342Z" fill="#C0EAA2"/>
<path d="M223.536 52.016H220.459L218.903 50.3022C216.899 51.7646 214.551 52.4957 211.863 52.4957C210.07 52.4957 208.762 52.1301 207.936 51.399C207.111 50.645 206.698 49.4568 206.698 47.8346V34.879H212.924V48.3486H215.541C216.203 48.3486 216.662 48.2572 216.921 48.0744C217.181 47.8917 217.31 47.5832 217.31 47.149V34.879H223.536V52.016Z" fill="#C0EAA2"/>
<path d="M234.745 38.8205V47.6973C235.5 47.8117 236.231 47.8803 236.938 47.903L236.655 51.9817C235.076 52.3244 233.731 52.4957 232.622 52.4957C231.231 52.4957 230.193 52.2215 229.51 51.6732C228.85 51.1019 228.519 50.2222 228.519 49.0342V38.8205H226.573V34.879H228.519V29.1667L234.745 30.4233V34.879H237.362V38.8205H234.745Z" fill="#C0EAA2"/>
<path d="M246.703 37.4267V51.399L240.477 52.4957V38.215L246.703 37.4267ZM243.554 35.6787C242.659 35.6787 241.974 35.5874 241.502 35.4046C241.031 35.2217 240.689 34.9018 240.477 34.4449C240.289 33.9879 240.194 33.3253 240.194 32.4569C240.194 31.2003 240.43 30.3435 240.901 29.8864C241.373 29.4065 242.257 29.1667 243.554 29.1667C244.852 29.1667 245.736 29.4065 246.208 29.8864C246.679 30.3435 246.915 31.2003 246.915 32.4569C246.915 33.7136 246.679 34.5705 246.208 35.0275C245.736 35.4617 244.852 35.6787 243.554 35.6787Z" fill="#C0EAA2"/>
<path d="M154.807 66.1268C154.747 66.7589 154.513 67.2526 154.104 67.6079C153.695 67.9605 153.151 68.1369 152.473 68.1369C151.999 68.1369 151.581 68.0257 151.219 67.8033C150.859 67.578 150.582 67.2594 150.385 66.8471C150.188 66.4347 150.087 65.956 150.078 65.4107V64.8573C150.078 64.2985 150.177 63.8061 150.377 63.3803C150.576 62.9543 150.861 62.6261 151.231 62.3955C151.604 62.165 152.035 62.0497 152.522 62.0497C153.179 62.0497 153.708 62.2274 154.108 62.5828C154.509 62.938 154.742 63.44 154.807 64.0883H153.778C153.728 63.6624 153.603 63.3558 153.401 63.1686C153.202 62.9787 152.909 62.8839 152.522 62.8839C152.073 62.8839 151.727 63.0479 151.484 63.3762C151.244 63.7017 151.122 64.1805 151.116 64.8125V65.3375C151.116 65.9776 151.231 66.466 151.459 66.8023C151.691 67.1386 152.03 67.3068 152.473 67.3068C152.879 67.3068 153.185 67.216 153.389 67.0341C153.594 66.8525 153.723 66.55 153.778 66.1268H154.807ZM160.87 67.2336H163.572V68.0555H159.836V62.1311H160.87V67.2336ZM171.943 65.4107H169.499V67.2336H172.356V68.0555H168.466V62.1311H172.328V62.9611H169.499V64.5969H171.943V65.4107ZM180.63 66.6761H178.326L177.843 68.0555H176.769L179.016 62.1311H179.944L182.195 68.0555H181.117L180.63 66.6761ZM178.616 65.8461H180.34L179.478 63.3883L178.616 65.8461ZM191.695 68.0555H190.662L188.01 63.8522V68.0555H186.976V62.1311H188.01L190.67 66.3507V62.1311H191.695V68.0555ZM196.97 64.9183C196.97 64.6607 197.052 64.4504 197.215 64.2876C197.381 64.1222 197.6 64.0394 197.874 64.0394C198.154 64.0394 198.376 64.1222 198.539 64.2876C198.702 64.4504 198.785 64.6647 198.785 64.9305V65.0811C198.785 65.3361 198.702 65.545 198.539 65.7078C198.379 65.8678 198.158 65.9478 197.878 65.9478C197.607 65.9478 197.39 65.8705 197.224 65.7158C197.06 65.5585 196.975 65.3537 196.97 65.1014V64.9183ZM208.587 66.1268C208.527 66.7589 208.293 67.2526 207.884 67.6079C207.476 67.9605 206.931 68.1369 206.254 68.1369C205.779 68.1369 205.361 68.0257 204.999 67.8033C204.639 67.578 204.362 67.2594 204.165 66.8471C203.968 66.4347 203.867 65.956 203.858 65.4107V64.8573C203.858 64.2985 203.959 63.8061 204.157 63.3803C204.356 62.9543 204.641 62.6261 205.011 62.3955C205.384 62.165 205.815 62.0497 206.302 62.0497C206.959 62.0497 207.488 62.2274 207.888 62.5828C208.289 62.938 208.522 63.44 208.587 64.0883H207.558C207.509 63.6624 207.383 63.3558 207.181 63.1686C206.983 62.9787 206.69 62.8839 206.302 62.8839C205.853 62.8839 205.507 63.0479 205.264 63.3762C205.025 63.7017 204.902 64.1805 204.896 64.8125V65.3375C204.896 65.9776 205.011 66.466 205.241 66.8023C205.472 67.1386 205.81 67.3068 206.254 67.3068C206.659 67.3068 206.965 67.216 207.169 67.0341C207.374 66.8525 207.503 66.55 207.558 66.1268H208.587ZM218.365 65.2479C218.365 65.8285 218.264 66.3385 218.064 66.7779C217.861 67.2146 217.573 67.551 217.196 67.7869C216.823 68.0203 216.392 68.1369 215.906 68.1369C215.423 68.1369 214.992 68.0203 214.614 67.7869C214.237 67.551 213.946 67.216 213.739 66.7819C213.534 66.3479 213.431 65.8475 213.428 65.2805V64.9468C213.428 64.369 213.53 63.859 213.735 63.4169C213.941 62.9747 214.232 62.6369 214.605 62.4037C214.982 62.1676 215.412 62.0497 215.897 62.0497C216.381 62.0497 216.811 62.1664 217.185 62.3996C217.56 62.6303 217.85 62.9639 218.055 63.4005C218.259 63.8346 218.362 64.3405 218.365 64.9183V65.2479ZM217.331 64.9387C217.331 64.2822 217.206 63.779 216.956 63.429C216.708 63.0792 216.355 62.9042 215.897 62.9042C215.449 62.9042 215.099 63.0792 214.847 63.429C214.596 63.7762 214.467 64.2686 214.462 64.9061V65.2479C214.462 65.899 214.589 66.4022 214.843 66.7575C215.099 67.1129 215.452 67.2905 215.906 67.2905C216.363 67.2905 216.715 67.1169 216.959 66.7697C217.207 66.4225 217.331 65.9153 217.331 65.2479V64.9387ZM223.497 68.0555V62.1311H225.253C225.779 62.1311 226.245 62.2478 226.651 62.481C227.06 62.7143 227.377 63.0453 227.6 63.4739C227.823 63.9025 227.935 64.3935 227.935 64.9468V65.2439C227.935 65.8054 227.822 66.2992 227.596 66.725C227.372 67.1508 227.052 67.4791 226.636 67.7097C226.222 67.9403 225.746 68.0555 225.209 68.0555H223.497ZM224.531 62.9611V67.2336H225.205C225.747 67.2336 226.163 67.0654 226.452 66.729C226.743 66.39 226.891 65.9044 226.897 65.2723V64.9428C226.897 64.2998 226.756 63.8089 226.475 63.4697C226.195 63.1307 225.788 62.9611 225.253 62.9611H224.531ZM236.545 65.4107H234.1V67.2336H236.957V68.0555H233.065V62.1311H236.928V62.9611H234.1V64.5969H236.545V65.4107ZM244.086 65.7728H242.934V68.0555H241.9V62.1311H243.992C244.679 62.1311 245.209 62.2843 245.583 62.5908C245.955 62.8973 246.142 63.341 246.142 63.9214C246.142 64.3175 246.046 64.6498 245.852 64.9183C245.661 65.1842 245.394 65.389 245.051 65.5328L246.388 68.0026V68.0555H245.28L244.086 65.7728ZM242.934 64.9468H243.997C244.345 64.9468 244.617 64.86 244.814 64.6864C245.011 64.5101 245.108 64.27 245.108 63.9662C245.108 63.6487 245.016 63.4033 244.835 63.2297C244.655 63.0561 244.384 62.9665 244.026 62.9611H242.934V64.9468Z" fill="#848484"/>
</svg>
