<svg xmlns="http://www.w3.org/2000/svg" viewBox="0 0 257.57 257.56"><defs><style>.cls-1{fill:#2e8dff;}</style></defs><g id="Layer_2" data-name="Layer 2"><g id="Layer_1-2" data-name="Layer 1"><path class="cls-1" d="M228.35,131.6a29.72,29.72,0,0,0-22.2,10.32h0s0,0,0,0a7.52,7.52,0,0,1-5.94,2c-3-.47-5.2-2.93-6.47-4.77a2.94,2.94,0,0,1-.26-.39v-59a18.76,18.76,0,0,0-15.66-15.65H117.87l-.34-.26c-1.73-1.3-3.78-3.35-4.2-6a7.86,7.86,0,0,1,2.44-6.48l0,0s0,0,0,0a13.1,13.1,0,0,1,1.2-1.09s0,0,.08-.06A29.21,29.21,0,0,0,95.45,0a29.44,29.44,0,0,0-28,29,29.08,29.08,0,0,0,8.84,21.12l.38.39c1.17,1.17,3.29,3.76,2.75,7.16C79,60.44,77,62.54,75.21,63.86a2.78,2.78,0,0,1-.34.26H54.8v73H88v22.43H54.8v11.87c0,21.91,18.58,40.47,48.15,40.47V234.3c-38.47,0-70.91-23-70.91-62.91V64.12H15.88A18.8,18.8,0,0,0,0,82.72v156a18.85,18.85,0,0,0,18.84,18.87h156a18.83,18.83,0,0,0,18.61-15.91V183c.08-.11.15-.24.26-.37,1.29-1.86,3.54-4.35,6.63-4.87a8.26,8.26,0,0,1,6.89,2.49l.06.05a27.79,27.79,0,0,0,20.49,9.72,29.23,29.23,0,1,0,.6-58.45Zm-88.1.12h.17c8.47,0,14.57,5.72,14.57,14.15,0,8.27-6.1,14.15-14.74,14.15s-14.9-5.88-14.9-14.15C125.35,137.44,131.62,131.72,140.25,131.72ZM124.67,250l-2.36-7.62C134.83,237.33,142,230.56,142,220.9c0-8.65-7.12-14.58-16.26-16.78-1.18,0-3.38-2.2-3.38-6.61,0-6.44,6.26-10.68,12.69-10.68h.34c9.32,0,23.88,10.17,23.88,27.62C159.22,234.28,140.93,245.47,124.67,250Z"/></g></g></svg>