<svg xmlns="http://www.w3.org/2000/svg" viewBox="0 0 739.08 170.58"><defs><style>.cls-1{fill:#2e8dff;}</style></defs><g id="Layer_2" data-name="Layer 2"><g id="Layer_1-2" data-name="Layer 1"><path class="cls-1" d="M151.24,87.16A19.71,19.71,0,0,0,136.53,94h0s0,0,0,0a5,5,0,0,1-3.93,1.31,7,7,0,0,1-4.29-3.16,1.92,1.92,0,0,1-.17-.26V52.83a12.41,12.41,0,0,0-10.37-10.36H78.06l-.22-.18a6.58,6.58,0,0,1-2.78-4A5.25,5.25,0,0,1,76.67,34l0,0,0,0a9.6,9.6,0,0,1,.8-.72l0,0a19.36,19.36,0,1,0-27,0l.26.25a5.63,5.63,0,0,1,1.82,4.74,6.7,6.7,0,0,1-2.82,4.1c-.07.07-.15.12-.22.18H36.3V90.8h22v14.85h-22v7.86c0,14.51,12.3,26.81,31.88,26.81v14.86c-25.47,0-47-15.2-47-41.67v-71H10.52A12.45,12.45,0,0,0,0,54.79v103.3a12.48,12.48,0,0,0,12.48,12.49h103.3A12.47,12.47,0,0,0,128.1,160V121.22a2.73,2.73,0,0,1,.17-.24,7.2,7.2,0,0,1,4.39-3.23,5.48,5.48,0,0,1,4.57,1.65l0,0a18.39,18.39,0,0,0,13.57,6.44,19.36,19.36,0,1,0,.4-38.71Zm-58.35.08H93c5.61,0,9.65,3.79,9.65,9.37s-4,9.37-9.76,9.37S83,102.09,83,96.61,87.17,87.24,92.89,87.24ZM82.57,165.6l-1.57-5c8.3-3.36,13-7.85,13-14.25,0-5.72-4.71-9.65-10.76-11.11-.79,0-2.25-1.46-2.25-4.38,0-4.26,4.15-7.07,8.41-7.07h.23c6.17,0,15.81,6.73,15.81,18.29C105.45,155.16,93.34,162.57,82.57,165.6Z"/><path class="cls-1" d="M243.63,150.67c-23,0-42.33-11.47-42.33-33.59V60.55h15.41V98.1h18.54v14.06H216.71v4.92c0,10.79,9.87,19.52,26.92,19.52Z"/><path class="cls-1" d="M248.56,115.71c0-19.11,17.35-35.63,38.14-35.63s38.13,16.38,38.13,35.63v35h-15.4v-7.24c-6,5.46-13.16,8.6-22.73,8.6C266.06,152,248.56,135.1,248.56,115.71Zm60.87,0c0-11.88-9.72-21.57-22.73-21.57-12.56,0-22.73,9.56-22.73,21.57C264,128,274.43,138,286.7,138,299.86,138,309.43,128.41,309.43,115.71Z"/><path class="cls-1" d="M334.7,116.12c0-19.25,17.2-36,37.84-36,20.48,0,37.68,16.65,37.68,36S392.73,152,372.54,152C351.9,152,334.7,135.24,334.7,116.12Zm60.12,0a22.36,22.36,0,0,0-44.72,0c0,12,10.17,21.85,22.44,21.85C384.65,138,394.82,127.73,394.82,116.12Z"/><path class="cls-1" d="M420.09,116.67V81.44H435.5v35.23c0,11.88,8.07,21.3,19.59,21.3s20.19-9.56,20.19-21.57v-35h15.4v35c0,20.2-15.55,35.63-35.59,35.63A35.19,35.19,0,0,1,420.09,116.67Z"/><path class="cls-1" d="M542.87,150.67c-23,0-42.32-11.47-42.32-33.59V60.55H516V98.1H534.5v14.06H516v4.92c0,10.79,9.87,19.52,26.92,19.52Z"/><path class="cls-1" d="M552.74,76.53v-16h15.41v16Zm0,74.14V80.49h15.41v70.18Z"/><path class="cls-1" d="M578.16,144c0-4,3.89-7.51,8.38-7.51s8.37,3.55,8.37,7.51-3.88,7.64-8.37,7.64S578.16,148.07,578.16,144Z"/><path class="cls-1" d="M604.78,116.12c0-19.25,17.2-36,38.14-36,10.77,0,20.19,3.55,27.22,10.78l-9.42,8.88A28.18,28.18,0,0,0,642.92,94c-12.86,0-22.73,9.83-22.73,22.12A22.06,22.06,0,0,0,642.62,138c8.23,0,13.76-2.05,18.4-6l9.12,10.24c-9.72,7.38-17.95,9.83-27.22,9.83C622,152,604.78,135.38,604.78,116.12Z"/><path class="cls-1" d="M673.73,116.12c0-19.25,17.19-36,38.13-36,10.77,0,20.19,3.55,27.22,10.78l-9.42,8.88A28.16,28.16,0,0,0,711.86,94c-12.86,0-22.73,9.83-22.73,22.12A22.06,22.06,0,0,0,711.56,138c8.23,0,13.76-2.05,18.4-6l9.12,10.24c-9.72,7.38-18,9.83-27.22,9.83C690.92,152,673.73,135.38,673.73,116.12Z"/></g></g></svg>