<svg xmlns="http://www.w3.org/2000/svg" viewBox="0 0 347.93 369.17"><defs><style>.cls-1,.cls-2{fill:#2e8dff;}.cls-2{font-size:86.73px;font-family:CayanoPro-Medium, Cayano Pro;font-weight:500;}</style></defs><g id="Layer_2" data-name="Layer 2"><g id="Layer_1-2" data-name="Layer 1"><path class="cls-1" d="M303.53,131.6a29.76,29.76,0,0,0-22.21,10.32h0s0,0,0,0a7.52,7.52,0,0,1-5.94,2c-3-.47-5.2-2.93-6.47-4.77a2.2,2.2,0,0,1-.26-.39v-59a18.76,18.76,0,0,0-15.66-15.65H193.05l-.34-.26c-1.73-1.3-3.78-3.35-4.2-6A7.86,7.86,0,0,1,191,51.34l0,0s0,0,0,0a13.1,13.1,0,0,1,1.2-1.09s.05,0,.07-.06A29.2,29.2,0,0,0,170.63,0a29.43,29.43,0,0,0-28,29,29.08,29.08,0,0,0,8.84,21.12l.38.39c1.17,1.17,3.29,3.76,2.75,7.16-.44,2.77-2.49,4.87-4.25,6.19a2.78,2.78,0,0,1-.34.26H130v73h33.23v22.43H130v11.87c0,21.91,18.58,40.47,48.15,40.47V234.3c-38.47,0-70.91-23-70.91-62.91V64.12H91.06a18.79,18.79,0,0,0-15.88,18.6v156A18.85,18.85,0,0,0,94,257.56H250a18.83,18.83,0,0,0,18.61-15.91V183a3.2,3.2,0,0,1,.26-.37c1.29-1.86,3.54-4.35,6.63-4.87a8.26,8.26,0,0,1,6.89,2.49l.06.05a27.79,27.79,0,0,0,20.49,9.72,29.23,29.23,0,1,0,.6-58.45Zm-88.1.12h.17c8.47,0,14.57,5.72,14.57,14.15,0,8.27-6.1,14.15-14.74,14.15s-14.9-5.88-14.9-14.15C200.53,137.44,206.8,131.72,215.43,131.72ZM199.85,250l-2.36-7.62c12.52-5.09,19.64-11.86,19.64-21.52,0-8.65-7.12-14.58-16.26-16.78-1.18,0-3.38-2.2-3.38-6.61,0-6.44,6.26-10.68,12.69-10.68h.34c9.32,0,23.88,10.17,23.88,27.62C234.4,234.28,216.11,245.47,199.85,250Z"/><text class="cls-2" transform="translate(0 347.75) scale(1.1 1)">taouti.cc</text></g></g></svg>